<svg width="18" height="18" viewBox="0 0 18 18" fill="none" xmlns="http://www.w3.org/2000/svg">
<path fill-rule="evenodd" clip-rule="evenodd" d="M8.78033 3.96967C9.07322 4.26256 9.07322 4.73744 8.78033 5.03033L5.56066 8.25H14.25C14.6642 8.25 15 8.58579 15 9C15 9.41421 14.6642 9.75 14.25 9.75H5.56066L8.78033 12.9697C9.07322 13.2626 9.07322 13.7374 8.78033 14.0303C8.48744 14.3232 8.01256 14.3232 7.71967 14.0303L3.21967 9.53033C3.07902 9.38968 3 9.19891 3 9C3 8.80109 3.07902 8.61032 3.21967 8.46967L7.71967 3.96967C8.01256 3.67678 8.48744 3.67678 8.78033 3.96967Z" fill="white"/>
</svg>
